<svg width="1927" height="576" viewBox="0 0 1927 576" fill="none" xmlns="http://www.w3.org/2000/svg">
<g clip-path="url(#clip0_397_286)">
<path d="M0.144531 575.781V292.275C0.144531 292.275 1644.23 16.8693 1741.73 1.29732C1839.24 -14.2747 1923.16 115.269 1923.16 115.269L1926.78 575.781H0.144531Z" fill="#3D2155"/>
<mask id="mask0_397_286" style="mask-type:luminance" maskUnits="userSpaceOnUse" x="0" y="-1" width="1927" height="577">
<path d="M0.144531 575.781V292.275C0.144531 292.275 1644.23 16.8693 1741.73 1.29732C1839.24 -14.2747 1923.16 115.269 1923.16 115.269L1926.78 575.781H0.144531Z" fill="white"/>
</mask>
<g mask="url(#mask0_397_286)">
<path d="M71.0706 340.349L71.0611 340.346L71.0516 340.343C49.0568 333.928 27.4251 327.187 8.60997 321.257C4.48404 319.956 0.492606 318.695 -3.33799 317.484C-16.9617 313.177 -28.551 309.514 -36.921 307.04L-53.6856 301.797L1926.92 -83.1938L1957.07 71.9101L1940.38 85.6825C1940.38 85.6848 1940.38 85.6872 1940.37 85.6895C1939.07 86.7356 1937.66 87.8681 1936.16 89.0755C1917.71 103.906 1885.19 130.043 1850.8 146.388L1850.79 146.392L1850.79 146.395C1814.37 164.322 1775.63 171.86 1737.25 179.32C1697.23 187.099 1659.15 194.474 1614.7 170.827C1599.25 162.568 1582.99 150.584 1566.59 138.489C1559.35 133.149 1552.07 127.788 1544.83 122.715C1533.04 114.464 1521.35 107 1510.05 101.749C1498.77 96.5018 1487.78 93.4189 1477.45 94.0378C1467.2 94.5329 1457.74 98.8081 1448.74 104.943C1439.74 111.075 1431.12 119.13 1422.57 127.28C1421.86 127.959 1421.15 128.639 1420.44 129.319C1412.59 136.82 1404.77 144.283 1396.68 150.426C1387.87 157.122 1378.82 162.17 1369.17 163.97L1369.17 163.972L1369.16 163.974C1359.79 165.868 1349.72 164.541 1339.2 161.521C1328.68 158.501 1317.81 153.824 1306.86 149.105L1306.82 149.086C1295.91 144.387 1284.91 139.649 1274.22 136.581C1263.51 133.509 1253 132.075 1243.09 134.08C1223.23 137.787 1205.98 155.15 1189.83 176.711C1181.72 187.53 1173.83 199.492 1165.99 211.467L1164.63 213.534C1157.24 224.83 1149.87 236.081 1142.35 246.399L1142.35 246.405C1110.89 290.08 1076.04 319.188 1039.68 342.201L1039.67 342.208L1039.66 342.215C1021.92 353.951 1003.99 364.06 984.994 368.33C966.055 372.589 946.011 371.053 924.011 359.379L924.001 359.374C904.348 349.189 883.528 331.463 862.729 313.756C859.263 310.806 855.799 307.856 852.34 304.942C840.265 294.768 828.278 285.041 816.665 277.327C805.063 269.621 793.746 263.862 783.008 261.705L782.995 261.703C761.629 257.647 743.003 268.195 725.075 280.411C722.205 282.366 719.357 284.362 716.515 286.354C710.416 290.627 704.346 294.881 698.156 298.67C689.108 304.208 679.936 308.666 670.329 310.61C652.418 313.947 632.656 308.364 612.551 302.683C611.342 302.342 610.131 302 608.92 301.659C587.75 295.71 566.293 290.242 547.171 296.562C537.184 299.806 527.955 306.083 519.132 313.528C512.633 319.013 506.291 325.189 500.009 331.307C497.774 333.484 495.545 335.654 493.32 337.783C484.808 345.927 476.318 353.494 467.446 358.827C458.592 364.151 449.428 367.205 439.55 366.417C429.649 365.617 418.859 361.052 407.502 354.4C396.16 347.755 384.375 339.105 372.483 330.249C371.549 329.553 370.614 328.857 369.679 328.16C358.729 319.997 347.715 311.786 336.975 305.012C325.327 297.664 313.893 291.934 303.093 289.792L303.083 289.791C281.7 285.731 263.112 296.286 245.415 309.842C240.174 313.857 234.942 318.192 229.724 322.516C226.155 325.473 222.592 328.426 219.037 331.266C210.23 338.304 201.361 344.752 192.143 349.308L192.137 349.311C174.178 358.311 154.586 359.385 134.109 356.537C114.63 353.828 94.4632 347.587 74.2432 341.33C73.1858 341.003 72.1282 340.676 71.0706 340.349Z" stroke="url(#paint0_linear_397_286)" stroke-width="2.5"/>
</g>
<g filter="url(#filter0_f_397_286)">
<circle cx="119.951" cy="493.5" r="183.807" fill="#FD715F" fill-opacity="0.1"/>
</g>
<g filter="url(#filter1_f_397_286)">
<path d="M2113.09 427.307C2113.09 565.378 1985.66 677.307 1828.47 677.307C1671.27 677.307 1543.84 565.378 1543.84 427.307C1543.84 289.235 1671.27 177.307 1828.47 177.307C1985.66 177.307 2113.09 289.235 2113.09 427.307Z" fill="#3A51DF" fill-opacity="0.1"/>
</g>
</g>
<defs>
<filter id="filter0_f_397_286" x="-313.855" y="59.6934" width="867.613" height="867.613" filterUnits="userSpaceOnUse" color-interpolation-filters="sRGB">
<feFlood flood-opacity="0" result="BackgroundImageFix"/>
<feBlend mode="normal" in="SourceGraphic" in2="BackgroundImageFix" result="shape"/>
<feGaussianBlur stdDeviation="125" result="effect1_foregroundBlur_397_286"/>
</filter>
<filter id="filter1_f_397_286" x="1293.84" y="-72.6934" width="1069.26" height="1000" filterUnits="userSpaceOnUse" color-interpolation-filters="sRGB">
<feFlood flood-opacity="0" result="BackgroundImageFix"/>
<feBlend mode="normal" in="SourceGraphic" in2="BackgroundImageFix" result="shape"/>
<feGaussianBlur stdDeviation="125" result="effect1_foregroundBlur_397_286"/>
</filter>
<linearGradient id="paint0_linear_397_286" x1="934.565" y1="108.427" x2="985.328" y2="369.58" gradientUnits="userSpaceOnUse">
<stop stop-color="#252542" stop-opacity="0.3"/>
<stop offset="1" stop-color="white" stop-opacity="0"/>
</linearGradient>
<clipPath id="clip0_397_286">
<rect width="1926.64" height="575.781" fill="white" transform="translate(0.144531)"/>
</clipPath>
</defs>
</svg>
