<svg width="1927" height="982" viewBox="0 0 1927 982" fill="none" xmlns="http://www.w3.org/2000/svg">
<g clip-path="url(#clip0_397_276)">
<path d="M1926.78 0V466.524C1926.78 466.524 279.949 962.491 185.194 979.572C90.4393 996.653 0.144531 864.745 0.144531 864.745V0H1926.78Z" fill="#3D2155"/>
<mask id="mask0_397_276" style="mask-type:luminance" maskUnits="userSpaceOnUse" x="0" y="0" width="1927" height="982">
<path d="M1926.78 0V466.524C1926.78 466.524 279.949 962.491 185.194 979.572C90.4393 996.653 3.76758 864.79 3.76758 864.79L0.144531 0H1926.78Z" fill="white"/>
</mask>
<g mask="url(#mask0_397_276)">
<path d="M207.996 367.174C208.593 358.583 211.896 350.403 217.431 343.807C222.966 337.211 230.448 332.537 238.804 330.457L379.357 295.479C387.702 293.402 396.492 294.019 404.466 297.242C412.439 300.464 419.189 306.127 423.749 313.419L500.603 436.336C505.166 443.634 507.301 452.19 506.702 460.777C506.103 469.363 502.8 477.539 497.267 484.133L404.218 595.024C398.686 601.618 391.207 606.29 382.855 608.372C374.503 610.453 365.706 609.836 357.727 606.609L223.332 552.267C215.358 549.043 208.61 543.379 204.051 536.086C199.493 528.793 197.36 520.244 197.956 511.664L207.996 367.174Z" stroke="url(#paint0_linear_397_276)" stroke-width="2.5"/>
<path d="M32.5638 260.417L8.03125 284.98V1.25H1925.53V127.547L1899.15 159.2C1885.81 175.216 1865.9 199.099 1842.7 216.334C1819.49 233.584 1793.3 243.943 1767.25 233.54C1754.15 228.209 1740.96 217.657 1727.66 204.611C1716.67 193.833 1705.68 181.433 1694.66 168.993C1692.35 166.382 1690.03 163.769 1687.71 161.168C1674.38 146.208 1660.99 131.681 1647.58 120.535C1634.18 109.403 1620.61 101.521 1606.91 100.057L1606.9 100.056C1593.17 98.6914 1579.55 103.858 1566.11 112.432C1552.66 121.008 1539.25 133.086 1525.92 145.756C1522.77 148.746 1519.63 151.769 1516.49 154.788C1506.3 164.593 1496.14 174.362 1485.98 182.875C1472.68 194.011 1459.51 202.877 1446.42 206.803C1420.31 214.635 1394.09 202.926 1367.38 188.242C1363.32 186.006 1359.24 183.701 1355.15 181.391C1345.9 176.16 1336.6 170.908 1327.33 166.39C1313.94 159.869 1300.46 154.804 1286.91 153.457C1259.79 150.56 1232.81 162.847 1206.1 180.291C1192.72 189.025 1179.36 199.092 1166.02 209.267C1164.51 210.422 1163 211.578 1161.49 212.734C1149.66 221.772 1137.86 230.79 1126.07 238.973C1072.84 275.903 1019.81 297.71 966.914 292.057L966.905 292.056C940.426 289.425 913.898 280.159 887.245 269.502C880.592 266.842 873.928 264.093 867.257 261.342C847.258 253.094 827.19 244.818 807.14 238.803C789.309 233.453 771.428 229.877 753.614 226.313C744.74 224.538 735.882 222.766 727.056 220.78C700.448 214.794 673.927 206.83 647.424 190.928C626.185 178.185 604.952 160.349 583.626 142.436C578.282 137.948 572.933 133.455 567.577 129.036C540.926 107.049 514.08 86.8847 487.14 78.8027C460.131 70.6997 433.183 74.7745 406.422 82.8027C393.048 86.8149 379.682 91.8272 366.362 96.822L366.342 96.8296C353.002 101.832 339.708 106.817 326.422 110.803C306.507 116.777 286.615 120.509 266.647 124.255C259.953 125.51 253.251 126.768 246.536 128.112C219.835 133.456 193.039 140.157 166.224 153.581C115.157 178.765 64.1511 229.191 36.4457 256.582C35.0979 257.914 33.8053 259.192 32.5705 260.41L32.5638 260.417Z" stroke="url(#paint1_linear_397_276)" stroke-width="2.5"/>
<path d="M136.795 727.113L136.801 727.112C152.083 725.072 167.544 729.547 183.191 737.344C198.228 744.836 213.306 755.324 228.444 765.855C229.065 766.287 229.686 766.719 230.307 767.151C246.031 778.084 261.823 788.934 277.541 796.189C293.267 803.45 309.059 807.18 324.764 803.718C344.694 799.333 364.287 793.38 383.866 787.432C394.278 784.269 404.685 781.107 415.137 778.183C445.313 769.74 476.019 763.223 508.836 764.108C525.163 764.577 542.161 766.993 559.38 769.839C564.012 770.605 568.662 771.402 573.319 772.2C585.946 774.365 598.621 776.538 611.107 778.112C645.283 782.418 678.451 782.3 706.381 765.122C720.289 756.713 732.891 744.07 744.883 729.64C754.37 718.223 763.523 705.626 772.654 693.06C775.063 689.744 777.471 686.43 779.883 683.14C791.457 667.356 803.14 652.115 815.65 639.699C828.16 627.283 841.427 617.765 856.142 613.343L856.154 613.34C870.767 608.795 894.223 608.221 922.485 610.339C950.694 612.453 983.521 617.234 1016.77 623.288C1083.27 635.396 1151.36 652.58 1187.43 663.639C1196.35 666.445 1202.39 669.598 1206.1 672.932C1209.76 676.229 1211.11 679.656 1210.81 683.161C1210.51 686.749 1208.47 690.651 1204.85 694.779C1201.24 698.892 1196.17 703.117 1190.02 707.343C1165.39 724.27 1124.26 740.717 1094.38 749.855L17.3867 1079.12L-47.3736 867.302L-18.2446 858.397C-14.3397 857.203 -10.0001 854.3 -5.32351 850.273C-0.624352 846.228 4.52006 840.954 10.0331 834.891C15.8656 828.476 22.1875 821.089 28.8671 813.283C34.7555 806.402 40.9219 799.196 47.2763 792.046C60.9061 776.708 75.5473 761.447 90.6846 749.524C105.835 737.59 121.373 729.089 136.795 727.113Z" stroke="url(#paint2_linear_397_276)" stroke-width="2.5"/>
</g>
<g filter="url(#filter0_f_397_276)">
<circle cx="1838.64" cy="193.232" r="254.49" fill="#3A51DF" fill-opacity="0.1"/>
</g>
<g filter="url(#filter1_f_397_276)">
<path d="M465.179 78.1504C465.179 216.222 337.746 328.15 180.549 328.15C23.3528 328.15 -104.08 216.222 -104.08 78.1504C-104.08 -59.9208 23.3528 -171.85 180.549 -171.85C337.746 -171.85 465.179 -59.9208 465.179 78.1504Z" fill="#3A51DF" fill-opacity="0.1"/>
</g>
<g filter="url(#filter2_f_397_276)">
<circle cx="66.6553" cy="661.286" r="170.735" fill="#FD715F" fill-opacity="0.1"/>
</g>
</g>
<defs>
<filter id="filter0_f_397_276" x="1434.15" y="-211.258" width="808.98" height="808.98" filterUnits="userSpaceOnUse" color-interpolation-filters="sRGB">
<feFlood flood-opacity="0" result="BackgroundImageFix"/>
<feBlend mode="normal" in="SourceGraphic" in2="BackgroundImageFix" result="shape"/>
<feGaussianBlur stdDeviation="75" result="effect1_foregroundBlur_397_276"/>
</filter>
<filter id="filter1_f_397_276" x="-354.08" y="-421.85" width="1069.26" height="1000" filterUnits="userSpaceOnUse" color-interpolation-filters="sRGB">
<feFlood flood-opacity="0" result="BackgroundImageFix"/>
<feBlend mode="normal" in="SourceGraphic" in2="BackgroundImageFix" result="shape"/>
<feGaussianBlur stdDeviation="125" result="effect1_foregroundBlur_397_276"/>
</filter>
<filter id="filter2_f_397_276" x="-354.08" y="240.551" width="841.471" height="841.471" filterUnits="userSpaceOnUse" color-interpolation-filters="sRGB">
<feFlood flood-opacity="0" result="BackgroundImageFix"/>
<feBlend mode="normal" in="SourceGraphic" in2="BackgroundImageFix" result="shape"/>
<feGaussianBlur stdDeviation="125" result="effect1_foregroundBlur_397_276"/>
</filter>
<linearGradient id="paint0_linear_397_276" x1="216.474" y1="343.003" x2="451.7" y2="540.382" gradientUnits="userSpaceOnUse">
<stop stop-color="#252542" stop-opacity="0.3"/>
<stop offset="1" stop-color="white" stop-opacity="0"/>
</linearGradient>
<linearGradient id="paint1_linear_397_276" x1="966.781" y1="0" x2="966.781" y2="294.194" gradientUnits="userSpaceOnUse">
<stop stop-color="#252542" stop-opacity="0.3"/>
<stop offset="1" stop-color="white" stop-opacity="0"/>
</linearGradient>
<linearGradient id="paint2_linear_397_276" x1="529.983" y1="604.7" x2="619.178" y2="896.445" gradientUnits="userSpaceOnUse">
<stop stop-color="#252542" stop-opacity="0.3"/>
<stop offset="1" stop-color="white" stop-opacity="0"/>
</linearGradient>
<clipPath id="clip0_397_276">
<rect width="1926.64" height="981.1" fill="white" transform="translate(0.144531)"/>
</clipPath>
</defs>
</svg>
